<svg width="21.000000" height="11.781538" viewBox="0 0 21 11.7815" fill="none" xmlns="http://www.w3.org/2000/svg" xmlns:xlink="http://www.w3.org/1999/xlink">
	<path id="Vector" d="M0.163208 5.51773C0.662598 4.9962 1.18542 4.52154 1.72717 4.09491C4.177 2.16623 7.08582 1.13589 10.0848 1.08415C11.2061 1.06479 12.3381 1.18246 13.4613 1.4413L12.4523 2.31406C11.6694 2.17865 10.8855 2.11834 10.1085 2.13179C7.40649 2.1785 4.77393 3.11586 2.54419 4.87144C2.14697 5.18409 1.76453 5.52039 1.3988 5.87961C2.0946 6.57749 2.86853 7.18062 3.69775 7.68707C4.20837 7.99913 4.73975 8.27438 5.2865 8.51282L4.38721 9.29068C3.91174 9.06835 3.44824 8.82 2.99951 8.54579C1.94958 7.90452 0.980591 7.12238 0.131714 6.20275C-0.0577393 5.99624 -0.0389404 5.70458 0.163208 5.51773ZM16.4115 0L17.4186 0.871136L4.80554 11.7815L3.79822 10.9101L16.4115 0ZM16.7003 2.60306C17.4562 2.97661 18.1986 3.42024 18.921 3.93555C19.5836 4.40801 20.2258 4.93678 20.8419 5.52246C21.0406 5.71124 21.0504 5.99122 20.8805 6.18871C20.1746 7.05112 19.3636 7.78759 18.4762 8.40062C16.2559 9.93372 13.5588 10.6885 10.8269 10.6992C9.78198 10.7032 9.15234 10.2348 8.12231 10.0227L8.72815 9.49897C9.42285 9.60318 10.1239 9.65403 10.822 9.65137C13.2866 9.64191 15.7189 8.96133 17.7206 7.57886C18.4038 7.10715 19.0376 6.5531 19.6053 5.91523C19.129 5.4858 18.6437 5.09584 18.1512 4.74475C17.3899 4.20179 16.606 3.7456 15.8087 3.37397L16.7003 2.60306ZM10.5001 2.682C10.9553 2.682 11.3915 2.7531 11.7948 2.88289L10.8226 3.72387C10.7168 3.71219 10.6093 3.70628 10.5002 3.70628C9.80286 3.70628 9.17151 3.95078 8.71448 4.34607C8.25757 4.74135 7.97485 5.28757 7.97485 5.89084C7.97485 5.9853 7.98169 6.07829 7.99524 6.16949L7.02295 7.01077C6.8728 6.66205 6.79077 6.28465 6.79077 5.89084C6.79077 5.00463 7.20605 4.20268 7.87732 3.62187C8.54846 3.04107 9.47571 2.682 10.5001 2.682ZM14.0331 4.91017C14.1476 5.21912 14.2095 5.54877 14.2095 5.89084C14.2095 6.77691 13.7942 7.57901 13.123 8.15967C12.4515 8.74033 11.5243 9.09939 10.5001 9.09939C10.1049 9.09939 9.72388 9.04603 9.36646 8.94669L10.3772 8.07245C10.4178 8.07423 10.4589 8.07511 10.5001 8.07511C11.1975 8.07511 11.8289 7.8309 12.2858 7.43562C12.7428 7.04033 13.0255 6.49412 13.0255 5.89099C13.0255 5.85537 13.0244 5.82003 13.0225 5.78456L14.0331 4.91017Z" fill="#A4A4A6" fill-opacity="1.000000" fill-rule="nonzero"/>
</svg>
