<svg width="21.000000" height="9.308035" viewBox="0 0 21 9.30803" fill="none" xmlns="http://www.w3.org/2000/svg" xmlns:xlink="http://www.w3.org/1999/xlink">
	<desc>
			Created with Pixso.
	</desc>
	<defs/>
	<path id="Vector" d="M0.16272 4.29374C0.661743 3.78874 1.18469 3.32952 1.72644 2.91609C4.17725 1.04918 7.08594 0.0520592 10.0853 0.00199127C13.0778 -0.0480804 16.1472 0.846035 18.921 2.76159C19.5841 3.21937 20.225 3.73009 20.8419 4.29803C21.0402 4.48114 21.0504 4.75152 20.8812 4.94322C20.1754 5.77725 19.3636 6.49111 18.4767 7.08337C16.2566 8.56689 13.5598 9.29649 10.827 9.30793C8.10461 9.31795 5.3479 8.61267 2.99976 7.22357C1.95032 6.6027 0.981323 5.84592 0.131958 4.9561C-0.0577393 4.75582 -0.0389404 4.47399 0.16272 4.29374ZM10.5006 1.54845C11.5243 1.54845 12.4523 1.89608 13.124 2.4583C13.7957 3.02052 14.2109 3.79589 14.2109 4.65425C14.2109 5.51116 13.7957 6.28797 13.124 6.85019C12.4523 7.41241 11.526 7.76004 10.5006 7.76004C9.47693 7.76004 8.54895 7.41241 7.8772 6.85019C7.20557 6.28797 6.79028 5.51259 6.79028 4.65425C6.79028 3.79733 7.20557 3.02052 7.8772 2.4583C8.54895 1.89608 9.47693 1.54845 10.5006 1.54845ZM12.2865 3.15929C11.8302 2.77732 11.1979 2.53984 10.5006 2.53984C9.80334 2.53984 9.17102 2.77589 8.71472 3.15929C8.25842 3.54125 7.97473 4.07057 7.97473 4.65425C7.97473 5.23792 8.25671 5.76724 8.71472 6.1492C9.17102 6.53117 9.80334 6.76865 10.5006 6.76865C11.1979 6.76865 11.8302 6.5326 12.2865 6.1492C12.7428 5.76724 13.0265 5.23792 13.0265 4.65425C13.0265 4.07057 12.7428 3.54125 12.2865 3.15929ZM2.54504 3.66714C2.14856 3.969 1.76575 4.29517 1.40002 4.6428C2.09558 5.31804 2.86987 5.90171 3.69873 6.3924C5.8418 7.65847 8.349 8.30223 10.8236 8.29365C13.2881 8.28363 15.72 7.62556 17.7229 6.28797C18.4066 5.83162 19.0389 5.29515 19.608 4.67857C19.1312 4.26227 18.6459 3.88602 18.1536 3.54554C15.6089 1.79022 12.818 0.971924 10.1093 1.01627C7.40723 1.06205 4.77368 1.96904 2.54504 3.66714Z" fill="#A4A4A6" fill-opacity="1.000000" fill-rule="nonzero"/>
</svg>
